<svg xmlns="http://www.w3.org/2000/svg" xmlns:xlink="http://www.w3.org/1999/xlink" width="200" zoomAndPan="magnify" viewBox="0 0 112.5 112.499997" height="200" preserveAspectRatio="xMidYMid meet" version="1.0"><defs><g/></defs><g fill="#f5fdc6" fill-opacity="1"><g transform="translate(12.216715, 58.785844)"><g><path d="M 14.003906 -3.988281 C 14.003906 -7.011719 9.914062 -8.164062 7.238281 -9.070312 C 4.914062 -9.851562 4.566406 -10.097656 4.566406 -10.753906 C 4.566406 -11.496094 5.492188 -11.824219 6.972656 -11.824219 C 8.761719 -11.824219 10.117188 -11.332031 10.117188 -9.5625 L 13.410156 -9.5625 C 13.410156 -12.441406 11.414062 -14.703125 6.972656 -14.703125 C 3.230469 -14.703125 1.273438 -13.347656 1.273438 -10.878906 C 1.273438 -8.039062 3.761719 -7.21875 6.828125 -6.191406 C 8.945312 -5.46875 10.714844 -4.996094 10.714844 -3.949219 C 10.714844 -3.167969 10.015625 -2.671875 7.898438 -2.671875 C 5.019531 -2.671875 3.90625 -3.371094 3.90625 -5.59375 L 0.617188 -5.59375 C 0.617188 -1.933594 2.570312 0.207031 7.792969 0.207031 C 12.257812 0.207031 14.003906 -1.5 14.003906 -3.988281 Z M 14.003906 -3.988281 "/></g></g></g><g fill="#f5fdc6" fill-opacity="1"><g transform="translate(26.831082, 58.785844)"><g><path d="M 0.617188 -14.5 L 0.617188 -11.621094 L 5.367188 -11.621094 L 5.367188 0 L 8.65625 0 L 8.65625 -11.621094 L 13.386719 -11.621094 L 13.386719 -14.5 Z M 0.617188 -14.5 "/></g></g></g><g fill="#f5fdc6" fill-opacity="1"><g transform="translate(40.828807, 58.785844)"><g><path d="M 4.523438 0 L 4.523438 -5.101562 L 10.199219 -5.101562 L 10.199219 0 L 13.492188 0 L 13.492188 -4.628906 C 13.492188 -5.757812 12.875 -6.375 11.742188 -6.375 L 9.625 -6.375 L 9.625 -7.199219 C 11.371094 -7.402344 13.304688 -8.0625 13.304688 -10.445312 C 13.304688 -13.695312 10.304688 -14.5 6.847656 -14.5 L 1.234375 -14.5 L 1.234375 0 Z M 4.523438 -11.621094 L 6.847656 -11.621094 C 8.800781 -11.621094 10.015625 -11.621094 10.015625 -9.789062 C 10.015625 -7.980469 8.800781 -7.980469 6.847656 -7.980469 L 4.523438 -7.980469 Z M 4.523438 -11.621094 "/></g></g></g><g fill="#f5fdc6" fill-opacity="1"><g transform="translate(55.545942, 58.785844)"><g><path d="M 10.898438 -14.5 L 1.027344 -14.5 L 1.027344 -11.621094 L 4.320312 -11.621094 L 4.320312 -2.878906 L 1.027344 -2.878906 L 1.027344 0 L 10.898438 0 L 10.898438 -2.878906 L 7.609375 -2.878906 L 7.609375 -11.621094 L 10.898438 -11.621094 Z M 10.898438 -14.5 "/></g></g></g><g fill="#f5fdc6" fill-opacity="1"><g transform="translate(67.467641, 58.785844)"><g><path d="M 12.296875 -2.878906 L 11.371094 -2.878906 L 7.710938 -14.5 L 1.234375 -14.5 L 1.234375 0 L 4.523438 0 L 4.523438 -11.621094 L 5.449219 -11.621094 L 9.109375 0 L 15.589844 0 L 15.589844 -14.5 L 12.296875 -14.5 Z M 12.296875 -2.878906 "/></g></g></g><g fill="#f5fdc6" fill-opacity="1"><g transform="translate(84.281356, 58.785844)"><g><path d="M 1.027344 -7.257812 C 1.027344 -2.816406 3.414062 0.207031 7.753906 0.207031 C 11.742188 0.207031 13.53125 -2.714844 13.550781 -7.257812 L 14.375 -7.257812 L 13.757812 -4.996094 L 13.757812 0 L 17.046875 0 L 17.046875 -6.335938 C 17.046875 -7.464844 16.429688 -8.082031 15.300781 -8.082031 L 7.734375 -8.082031 L 7.734375 -5.613281 L 11.085938 -5.613281 C 11.085938 -3.660156 9.851562 -2.671875 7.875 -2.671875 C 5.492188 -2.671875 4.320312 -4.050781 4.320312 -7.257812 C 4.320312 -10.445312 5.800781 -11.824219 8.328125 -11.824219 C 10.507812 -11.824219 11.597656 -11.023438 11.925781 -9.316406 L 15.21875 -9.316406 C 14.785156 -12.484375 11.96875 -14.703125 8.328125 -14.703125 C 4.132812 -14.703125 1.027344 -11.679688 1.027344 -7.257812 Z M 1.027344 -7.257812 "/></g></g></g><g fill="#f5fdc6" fill-opacity="1"><g transform="translate(37.355121, 68.006968)"><g><path d="M 0.429688 -1.285156 L 3.730469 -1.285156 L 3.730469 -2.015625 L 0.429688 -2.015625 Z M 0.429688 -1.285156 "/></g></g></g><g fill="#ffffff" fill-opacity="1"><g transform="translate(41.876359, 68.006968)"><g/></g></g><g fill="#ffffff" fill-opacity="1"><g transform="translate(43.95487, 68.006968)"><g><path d="M 3.167969 -0.855469 L 2.921875 -0.855469 L 2.292969 -4.308594 L 0.367188 -4.308594 L 0.367188 0 L 1.34375 0 L 1.34375 -3.453125 L 1.496094 -3.453125 L 2.15625 0 L 3.929688 0 L 4.589844 -3.453125 L 4.742188 -3.453125 L 4.742188 0 L 5.722656 0 L 5.722656 -4.308594 L 3.796875 -4.308594 Z M 3.167969 -0.855469 "/></g></g></g><g fill="#ffffff" fill-opacity="1"><g transform="translate(50.410478, 68.006968)"><g><path d="M 0.246094 -1.601562 C 0.246094 -0.527344 0.910156 0.0625 2.1875 0.0625 C 3.464844 0.0625 4.136719 -0.527344 4.136719 -1.601562 L 4.136719 -4.308594 L 3.160156 -4.308594 L 3.160156 -2.035156 C 3.160156 -1.265625 3.085938 -0.792969 2.1875 -0.792969 C 1.289062 -0.792969 1.222656 -1.265625 1.222656 -2.035156 L 1.222656 -4.308594 L 0.246094 -4.308594 Z M 0.246094 -1.601562 "/></g></g></g><g fill="#ffffff" fill-opacity="1"><g transform="translate(55.160484, 68.006968)"><g><path d="M 4.164062 -1.1875 C 4.164062 -2.085938 2.945312 -2.425781 2.152344 -2.695312 C 1.460938 -2.929688 1.355469 -3 1.355469 -3.195312 C 1.355469 -3.417969 1.632812 -3.515625 2.074219 -3.515625 C 2.605469 -3.515625 3.007812 -3.367188 3.007812 -2.84375 L 3.984375 -2.84375 C 3.984375 -3.699219 3.394531 -4.371094 2.074219 -4.371094 C 0.960938 -4.371094 0.378906 -3.96875 0.378906 -3.234375 C 0.378906 -2.390625 1.117188 -2.144531 2.03125 -1.839844 C 2.660156 -1.625 3.183594 -1.484375 3.183594 -1.171875 C 3.183594 -0.941406 2.976562 -0.792969 2.347656 -0.792969 C 1.492188 -0.792969 1.160156 -1.003906 1.160156 -1.664062 L 0.183594 -1.664062 C 0.183594 -0.574219 0.765625 0.0625 2.316406 0.0625 C 3.644531 0.0625 4.164062 -0.445312 4.164062 -1.1875 Z M 4.164062 -1.1875 "/></g></g></g><g fill="#ffffff" fill-opacity="1"><g transform="translate(59.873809, 68.006968)"><g><path d="M 3.238281 -4.308594 L 0.304688 -4.308594 L 0.304688 -3.453125 L 1.285156 -3.453125 L 1.285156 -0.855469 L 0.304688 -0.855469 L 0.304688 0 L 3.238281 0 L 3.238281 -0.855469 L 2.261719 -0.855469 L 2.261719 -3.453125 L 3.238281 -3.453125 Z M 3.238281 -4.308594 "/></g></g></g><g fill="#ffffff" fill-opacity="1"><g transform="translate(63.786299, 68.006968)"><g><path d="M 0.304688 -2.15625 C 0.304688 -0.898438 1.148438 0.0625 2.519531 0.0625 C 3.722656 0.0625 4.519531 -0.597656 4.644531 -1.667969 L 3.667969 -1.667969 C 3.570312 -1.101562 3.117188 -0.792969 2.53125 -0.792969 C 1.777344 -0.792969 1.285156 -1.265625 1.285156 -2.15625 C 1.285156 -3.042969 1.777344 -3.515625 2.53125 -3.515625 C 3.117188 -3.515625 3.570312 -3.214844 3.667969 -2.648438 L 4.644531 -2.648438 C 4.519531 -3.710938 3.722656 -4.371094 2.519531 -4.371094 C 1.148438 -4.371094 0.304688 -3.410156 0.304688 -2.15625 Z M 0.304688 -2.15625 "/></g></g></g><g fill="#ffffff" fill-opacity="1"><g transform="translate(69.099302, 68.006968)"><g/></g></g><g fill="#ffffff" fill-opacity="1"><g transform="translate(71.177814, 68.006968)"><g/></g></g><g fill="#f5fdc6" fill-opacity="1"><g transform="translate(73.254383, 68.006968)"><g><path d="M 0.429688 -1.285156 L 3.730469 -1.285156 L 3.730469 -2.015625 L 0.429688 -2.015625 Z M 0.429688 -1.285156 "/></g></g></g></svg>