<svg xmlns="http://www.w3.org/2000/svg" xmlns:xlink="http://www.w3.org/1999/xlink" width="300" zoomAndPan="magnify" viewBox="0 0 375 374.999991" height="300" preserveAspectRatio="xMidYMid meet" version="1.0"><defs><g/></defs><g fill="#f5fdc6" fill-opacity="1"><g transform="translate(104.413915, 183.262841)"><g><path d="M 26.921875 -7.667969 C 26.921875 -13.480469 19.054688 -15.695312 13.914062 -17.433594 C 9.449219 -18.933594 8.777344 -19.410156 8.777344 -20.675781 C 8.777344 -22.097656 10.554688 -22.730469 13.402344 -22.730469 C 16.839844 -22.730469 19.449219 -21.78125 19.449219 -18.382812 L 25.773438 -18.382812 C 25.773438 -23.917969 21.941406 -28.265625 13.402344 -28.265625 C 6.207031 -28.265625 2.449219 -25.65625 2.449219 -20.910156 C 2.449219 -15.457031 7.234375 -13.875 13.125 -11.898438 C 17.195312 -10.515625 20.597656 -9.605469 20.597656 -7.589844 C 20.597656 -6.085938 19.25 -5.140625 15.179688 -5.140625 C 9.644531 -5.140625 7.511719 -6.484375 7.511719 -10.753906 L 1.1875 -10.753906 C 1.1875 -3.714844 4.941406 0.394531 14.980469 0.394531 C 23.5625 0.394531 26.921875 -2.886719 26.921875 -7.667969 Z M 26.921875 -7.667969 "/></g></g></g><g fill="#f5fdc6" fill-opacity="1"><g transform="translate(132.5162, 183.262841)"><g><path d="M 1.1875 -27.871094 L 1.1875 -22.335938 L 10.316406 -22.335938 L 10.316406 0 L 16.644531 0 L 16.644531 -22.335938 L 25.734375 -22.335938 L 25.734375 -27.871094 Z M 1.1875 -27.871094 "/></g></g></g><g fill="#f5fdc6" fill-opacity="1"><g transform="translate(159.432734, 183.262841)"><g><path d="M 8.695312 0 L 8.695312 -9.804688 L 19.609375 -9.804688 L 19.609375 0 L 25.933594 0 L 25.933594 -8.894531 C 25.933594 -11.070312 24.746094 -12.253906 22.574219 -12.253906 L 18.5 -12.253906 L 18.5 -13.835938 C 21.859375 -14.230469 25.578125 -15.496094 25.578125 -20.082031 C 25.578125 -26.328125 19.804688 -27.871094 13.164062 -27.871094 L 2.371094 -27.871094 L 2.371094 0 Z M 8.695312 -22.335938 L 13.164062 -22.335938 C 16.917969 -22.335938 19.25 -22.335938 19.25 -18.816406 C 19.25 -15.339844 16.917969 -15.339844 13.164062 -15.339844 L 8.695312 -15.339844 Z M 8.695312 -22.335938 "/></g></g></g><g fill="#f5fdc6" fill-opacity="1"><g transform="translate(187.732638, 183.262841)"><g><path d="M 20.953125 -27.871094 L 1.976562 -27.871094 L 1.976562 -22.335938 L 8.300781 -22.335938 L 8.300781 -5.535156 L 1.976562 -5.535156 L 1.976562 0 L 20.953125 0 L 20.953125 -5.535156 L 14.625 -5.535156 L 14.625 -22.335938 L 20.953125 -22.335938 Z M 20.953125 -27.871094 "/></g></g></g><g fill="#f5fdc6" fill-opacity="1"><g transform="translate(210.657143, 183.262841)"><g><path d="M 23.640625 -5.535156 L 21.859375 -5.535156 L 14.824219 -27.871094 L 2.371094 -27.871094 L 2.371094 0 L 8.695312 0 L 8.695312 -22.335938 L 10.476562 -22.335938 L 17.511719 0 L 29.964844 0 L 29.964844 -27.871094 L 23.640625 -27.871094 Z M 23.640625 -5.535156 "/></g></g></g><g fill="#f5fdc6" fill-opacity="1"><g transform="translate(242.988596, 183.262841)"><g><path d="M 1.976562 -13.953125 C 1.976562 -5.414062 6.5625 0.394531 14.902344 0.394531 C 22.574219 0.394531 26.011719 -5.21875 26.050781 -13.953125 L 27.632812 -13.953125 L 26.445312 -9.605469 L 26.445312 0 L 32.769531 0 L 32.769531 -12.175781 C 32.769531 -14.351562 31.585938 -15.535156 29.410156 -15.535156 L 14.863281 -15.535156 L 14.863281 -10.792969 L 21.308594 -10.792969 C 21.308594 -7.035156 18.933594 -5.140625 15.140625 -5.140625 C 10.554688 -5.140625 8.300781 -7.789062 8.300781 -13.953125 C 8.300781 -20.082031 11.148438 -22.730469 16.011719 -22.730469 C 20.199219 -22.730469 22.296875 -21.1875 22.929688 -17.90625 L 29.253906 -17.90625 C 28.421875 -23.996094 23.007812 -28.265625 16.011719 -28.265625 C 7.945312 -28.265625 1.976562 -22.453125 1.976562 -13.953125 Z M 1.976562 -13.953125 "/></g></g></g><g fill="#f5fdc6" fill-opacity="1"><g transform="translate(146.372014, 208.610202)"><g><path d="M 0.960938 -2.878906 L 8.363281 -2.878906 L 8.363281 -4.523438 L 0.960938 -4.523438 Z M 0.960938 -2.878906 "/></g></g></g><g fill="#ffffff" fill-opacity="1"><g transform="translate(156.508732, 208.610202)"><g/></g></g><g fill="#ffffff" fill-opacity="1"><g transform="translate(161.16718, 208.610202)"><g><path d="M 7.101562 -1.917969 L 6.554688 -1.917969 L 5.140625 -9.664062 L 0.824219 -9.664062 L 0.824219 0 L 3.015625 0 L 3.015625 -7.746094 L 3.359375 -7.746094 L 4.839844 0 L 8.816406 0 L 10.296875 -7.746094 L 10.640625 -7.746094 L 10.640625 0 L 12.832031 0 L 12.832031 -9.664062 L 8.515625 -9.664062 Z M 7.101562 -1.917969 "/></g></g></g><g fill="#ffffff" fill-opacity="1"><g transform="translate(175.634311, 208.610202)"><g><path d="M 0.546875 -3.59375 C 0.546875 -1.179688 2.042969 0.136719 4.90625 0.136719 C 7.773438 0.136719 9.28125 -1.179688 9.28125 -3.59375 L 9.28125 -9.664062 L 7.089844 -9.664062 L 7.089844 -4.566406 C 7.089844 -2.839844 6.921875 -1.78125 4.90625 -1.78125 C 2.894531 -1.78125 2.742188 -2.839844 2.742188 -4.566406 L 2.742188 -9.664062 L 0.546875 -9.664062 Z M 0.546875 -3.59375 "/></g></g></g><g fill="#ffffff" fill-opacity="1"><g transform="translate(186.279347, 208.610202)"><g><path d="M 9.335938 -2.660156 C 9.335938 -4.675781 6.609375 -5.441406 4.824219 -6.046875 C 3.277344 -6.566406 3.042969 -6.730469 3.042969 -7.171875 C 3.042969 -7.664062 3.660156 -7.882812 4.648438 -7.882812 C 5.839844 -7.882812 6.746094 -7.554688 6.746094 -6.375 L 8.9375 -6.375 C 8.9375 -8.292969 7.609375 -9.800781 4.648438 -9.800781 C 2.152344 -9.800781 0.851562 -8.898438 0.851562 -7.253906 C 0.851562 -5.359375 2.507812 -4.8125 4.550781 -4.125 C 5.964844 -3.648438 7.144531 -3.332031 7.144531 -2.632812 C 7.144531 -2.113281 6.675781 -1.78125 5.265625 -1.78125 C 3.34375 -1.78125 2.605469 -2.25 2.605469 -3.730469 L 0.410156 -3.730469 C 0.410156 -1.289062 1.714844 0.136719 5.195312 0.136719 C 8.171875 0.136719 9.335938 -1 9.335938 -2.660156 Z M 9.335938 -2.660156 "/></g></g></g><g fill="#ffffff" fill-opacity="1"><g transform="translate(196.84218, 208.610202)"><g><path d="M 7.265625 -9.664062 L 0.683594 -9.664062 L 0.683594 -7.746094 L 2.878906 -7.746094 L 2.878906 -1.917969 L 0.683594 -1.917969 L 0.683594 0 L 7.265625 0 L 7.265625 -1.917969 L 5.074219 -1.917969 L 5.074219 -7.746094 L 7.265625 -7.746094 Z M 7.265625 -9.664062 "/></g></g></g><g fill="#ffffff" fill-opacity="1"><g transform="translate(205.610405, 208.610202)"><g><path d="M 0.683594 -4.839844 C 0.683594 -2.015625 2.578125 0.136719 5.648438 0.136719 C 8.347656 0.136719 10.132812 -1.34375 10.417969 -3.742188 L 8.226562 -3.742188 C 8.007812 -2.46875 6.992188 -1.78125 5.675781 -1.78125 C 3.988281 -1.78125 2.878906 -2.839844 2.878906 -4.839844 C 2.878906 -6.828125 3.988281 -7.882812 5.675781 -7.882812 C 6.992188 -7.882812 8.007812 -7.210938 8.226562 -5.9375 L 10.417969 -5.9375 C 10.132812 -8.320312 8.347656 -9.800781 5.648438 -9.800781 C 2.578125 -9.800781 0.683594 -7.648438 0.683594 -4.839844 Z M 0.683594 -4.839844 "/></g></g></g><g fill="#ffffff" fill-opacity="1"><g transform="translate(217.528259, 208.610202)"><g/></g></g><g fill="#ffffff" fill-opacity="1"><g transform="translate(222.186707, 208.610202)"><g/></g></g><g fill="#f5fdc6" fill-opacity="1"><g transform="translate(226.844669, 208.610202)"><g><path d="M 0.960938 -2.878906 L 8.363281 -2.878906 L 8.363281 -4.523438 L 0.960938 -4.523438 Z M 0.960938 -2.878906 "/></g></g></g></svg>