<svg xmlns="http://www.w3.org/2000/svg" xmlns:xlink="http://www.w3.org/1999/xlink" width="500" zoomAndPan="magnify" viewBox="0 0 375 374.999991" height="500" preserveAspectRatio="xMidYMid meet" version="1.0"><defs><g/></defs><g fill="#000000" fill-opacity="1"><g transform="translate(100.710152, 196.874869)"><g><path d="M 26.894531 -7.660156 C 26.894531 -13.46875 19.035156 -15.679688 13.902344 -17.417969 C 9.4375 -18.917969 8.769531 -19.390625 8.769531 -20.65625 C 8.769531 -22.078125 10.546875 -22.710938 13.390625 -22.710938 C 16.824219 -22.710938 19.429688 -21.761719 19.429688 -18.363281 L 25.75 -18.363281 C 25.75 -23.894531 21.917969 -28.238281 13.390625 -28.238281 C 6.199219 -28.238281 2.449219 -25.632812 2.449219 -20.894531 C 2.449219 -15.441406 7.226562 -13.863281 13.113281 -11.886719 C 17.179688 -10.503906 20.578125 -9.597656 20.578125 -7.582031 C 20.578125 -6.082031 19.234375 -5.132812 15.167969 -5.132812 C 9.636719 -5.132812 7.503906 -6.476562 7.503906 -10.742188 L 1.183594 -10.742188 C 1.183594 -3.710938 4.9375 0.394531 14.96875 0.394531 C 23.539062 0.394531 26.894531 -2.882812 26.894531 -7.660156 Z M 26.894531 -7.660156 "/></g></g></g><g fill="#000000" fill-opacity="1"><g transform="translate(128.789053, 196.874869)"><g><path d="M 1.183594 -27.84375 L 1.183594 -22.316406 L 10.308594 -22.316406 L 10.308594 0 L 16.628906 0 L 16.628906 -22.316406 L 25.710938 -22.316406 L 25.710938 -27.84375 Z M 1.183594 -27.84375 "/></g></g></g><g fill="#000000" fill-opacity="1"><g transform="translate(155.683193, 196.874869)"><g><path d="M 8.6875 0 L 8.6875 -9.792969 L 19.589844 -9.792969 L 19.589844 0 L 25.910156 0 L 25.910156 -8.886719 C 25.910156 -11.058594 24.722656 -12.242188 22.550781 -12.242188 L 18.484375 -12.242188 L 18.484375 -13.824219 C 21.839844 -14.21875 25.554688 -15.480469 25.554688 -20.0625 C 25.554688 -26.304688 19.785156 -27.84375 13.152344 -27.84375 L 2.371094 -27.84375 L 2.371094 0 Z M 8.6875 -22.316406 L 13.152344 -22.316406 C 16.902344 -22.316406 19.234375 -22.316406 19.234375 -18.800781 C 19.234375 -15.324219 16.902344 -15.324219 13.152344 -15.324219 L 8.6875 -15.324219 Z M 8.6875 -22.316406 "/></g></g></g><g fill="#000000" fill-opacity="1"><g transform="translate(183.959563, 196.874869)"><g><path d="M 20.933594 -27.84375 L 1.976562 -27.84375 L 1.976562 -22.316406 L 8.292969 -22.316406 L 8.292969 -5.53125 L 1.976562 -5.53125 L 1.976562 0 L 20.933594 0 L 20.933594 -5.53125 L 14.613281 -5.53125 L 14.613281 -22.316406 L 20.933594 -22.316406 Z M 20.933594 -27.84375 "/></g></g></g><g fill="#000000" fill-opacity="1"><g transform="translate(206.865002, 196.874869)"><g><path d="M 23.617188 -5.53125 L 21.839844 -5.53125 L 14.8125 -27.84375 L 2.371094 -27.84375 L 2.371094 0 L 8.6875 0 L 8.6875 -22.316406 L 10.464844 -22.316406 L 17.496094 0 L 29.9375 0 L 29.9375 -27.84375 L 23.617188 -27.84375 Z M 23.617188 -5.53125 "/></g></g></g><g fill="#000000" fill-opacity="1"><g transform="translate(239.169566, 196.874869)"><g><path d="M 1.976562 -13.941406 C 1.976562 -5.410156 6.554688 0.394531 14.890625 0.394531 C 22.550781 0.394531 25.988281 -5.214844 26.027344 -13.941406 L 27.605469 -13.941406 L 26.421875 -9.597656 L 26.421875 0 L 32.742188 0 L 32.742188 -12.164062 C 32.742188 -14.335938 31.554688 -15.523438 29.382812 -15.523438 L 14.851562 -15.523438 L 14.851562 -10.78125 L 21.289062 -10.78125 C 21.289062 -7.03125 18.917969 -5.132812 15.125 -5.132812 C 10.546875 -5.132812 8.292969 -7.78125 8.292969 -13.941406 C 8.292969 -20.0625 11.136719 -22.710938 15.996094 -22.710938 C 20.183594 -22.710938 22.273438 -21.167969 22.90625 -17.890625 L 29.226562 -17.890625 C 28.398438 -23.972656 22.984375 -28.238281 15.996094 -28.238281 C 7.9375 -28.238281 1.976562 -22.433594 1.976562 -13.941406 Z M 1.976562 -13.941406 "/></g></g></g><g fill="#000000" fill-opacity="1"><g transform="translate(144.929822, 213.549946)"><g><path d="M 0.960938 -2.878906 L 8.363281 -2.878906 L 8.363281 -4.523438 L 0.960938 -4.523438 Z M 0.960938 -2.878906 "/></g></g></g><g fill="#000000" fill-opacity="1"><g transform="translate(155.067987, 213.549946)"><g/></g></g><g fill="#000000" fill-opacity="1"><g transform="translate(159.726435, 213.549946)"><g><path d="M 7.101562 -1.917969 L 6.554688 -1.917969 L 5.140625 -9.664062 L 0.824219 -9.664062 L 0.824219 0 L 3.015625 0 L 3.015625 -7.746094 L 3.359375 -7.746094 L 4.839844 0 L 8.816406 0 L 10.296875 -7.746094 L 10.640625 -7.746094 L 10.640625 0 L 12.832031 0 L 12.832031 -9.664062 L 8.515625 -9.664062 Z M 7.101562 -1.917969 "/></g></g></g><g fill="#000000" fill-opacity="1"><g transform="translate(174.193568, 213.549946)"><g><path d="M 0.546875 -3.59375 C 0.546875 -1.179688 2.042969 0.136719 4.90625 0.136719 C 7.773438 0.136719 9.28125 -1.179688 9.28125 -3.59375 L 9.28125 -9.664062 L 7.089844 -9.664062 L 7.089844 -4.566406 C 7.089844 -2.839844 6.921875 -1.78125 4.90625 -1.78125 C 2.894531 -1.78125 2.742188 -2.839844 2.742188 -4.566406 L 2.742188 -9.664062 L 0.546875 -9.664062 Z M 0.546875 -3.59375 "/></g></g></g><g fill="#000000" fill-opacity="1"><g transform="translate(184.838604, 213.549946)"><g><path d="M 9.335938 -2.660156 C 9.335938 -4.675781 6.609375 -5.441406 4.824219 -6.046875 C 3.277344 -6.566406 3.042969 -6.730469 3.042969 -7.171875 C 3.042969 -7.664062 3.660156 -7.882812 4.648438 -7.882812 C 5.839844 -7.882812 6.746094 -7.554688 6.746094 -6.375 L 8.9375 -6.375 C 8.9375 -8.292969 7.609375 -9.800781 4.648438 -9.800781 C 2.152344 -9.800781 0.851562 -8.898438 0.851562 -7.253906 C 0.851562 -5.359375 2.507812 -4.8125 4.550781 -4.125 C 5.964844 -3.648438 7.144531 -3.332031 7.144531 -2.632812 C 7.144531 -2.113281 6.675781 -1.78125 5.265625 -1.78125 C 3.34375 -1.78125 2.605469 -2.25 2.605469 -3.730469 L 0.410156 -3.730469 C 0.410156 -1.289062 1.714844 0.136719 5.195312 0.136719 C 8.171875 0.136719 9.335938 -1 9.335938 -2.660156 Z M 9.335938 -2.660156 "/></g></g></g><g fill="#000000" fill-opacity="1"><g transform="translate(195.401434, 213.549946)"><g><path d="M 7.265625 -9.664062 L 0.683594 -9.664062 L 0.683594 -7.746094 L 2.878906 -7.746094 L 2.878906 -1.917969 L 0.683594 -1.917969 L 0.683594 0 L 7.265625 0 L 7.265625 -1.917969 L 5.074219 -1.917969 L 5.074219 -7.746094 L 7.265625 -7.746094 Z M 7.265625 -9.664062 "/></g></g></g><g fill="#000000" fill-opacity="1"><g transform="translate(204.169662, 213.549946)"><g><path d="M 0.683594 -4.839844 C 0.683594 -2.015625 2.578125 0.136719 5.648438 0.136719 C 8.347656 0.136719 10.132812 -1.34375 10.417969 -3.742188 L 8.226562 -3.742188 C 8.007812 -2.46875 6.992188 -1.78125 5.675781 -1.78125 C 3.988281 -1.78125 2.878906 -2.839844 2.878906 -4.839844 C 2.878906 -6.828125 3.988281 -7.882812 5.675781 -7.882812 C 6.992188 -7.882812 8.007812 -7.210938 8.226562 -5.9375 L 10.417969 -5.9375 C 10.132812 -8.320312 8.347656 -9.800781 5.648438 -9.800781 C 2.578125 -9.800781 0.683594 -7.648438 0.683594 -4.839844 Z M 0.683594 -4.839844 "/></g></g></g><g fill="#000000" fill-opacity="1"><g transform="translate(216.088734, 213.549946)"><g/></g></g><g fill="#000000" fill-opacity="1"><g transform="translate(220.747183, 213.549946)"><g><path d="M 0.960938 -2.878906 L 8.363281 -2.878906 L 8.363281 -4.523438 L 0.960938 -4.523438 Z M 0.960938 -2.878906 "/></g></g></g></svg>